<?xml version="1.0" standalone="no"?>
<!DOCTYPE svg PUBLIC "-//W3C//DTD SVG 20010904//EN"
 "http://www.w3.org/TR/2001/REC-SVG-20010904/DTD/svg10.dtd">
<svg version="1.0" xmlns="http://www.w3.org/2000/svg"
 width="260.000000pt" height="260.000000pt" viewBox="0 0 260.000000 260.000000"
 preserveAspectRatio="xMidYMid meet">
<metadata>
Created by potrace 1.11, written by Peter Selinger 2001-2013
</metadata>
<g transform="translate(0.000000,260.000000) scale(0.100000,-0.100000)"
fill="#000000" stroke="none">
<path d="M737 2233 c-2 -5 -3 -431 -3 -948 l1 -940 115 0 115 0 1 500 c1 275
2 503 3 508 1 11 127 91 181 115 87 39 147 51 233 48 88 -4 137 -20 179 -59
74 -68 81 -124 84 -652 1 -242 3 -446 3 -452 1 -10 31 -13 114 -13 l113 0 -1
503 c-1 482 -2 505 -23 578 -48 170 -146 270 -302 306 -8 2 -50 6 -93 10 -137
10 -254 -26 -402 -123 -44 -29 -82 -51 -85 -49 -3 2 -5 154 -4 339 l0 336
-112 0 c-62 0 -115 -3 -117 -7z"/>
</g>
</svg>
